<svg viewBox="0 0 16 16" version="1.1" xmlns="http://www.w3.org/2000/svg" height="12px" width="12px"><path fill="" d="M11.9993 1.3335H7.88601C7.35267 1.3335 6.84601 1.54016 6.47268 1.92016L3.25269 5.14016C2.87269 5.52016 2.66602 6.02016 2.66602 6.5535V13.3335C2.66602 14.0668 3.26602 14.6668 3.99935 14.6668H11.9993C12.7327 14.6668 13.3327 14.0668 13.3327 13.3335V2.66683C13.3327 1.9335 12.7327 1.3335 11.9993 1.3335ZM7.33268 2.94016V6.00016H4.27268L7.33268 2.94016ZM11.9993 13.3335H3.99935V7.3335H7.33268C8.06602 7.3335 8.66602 6.7335 8.66602 6.00016V2.66683H11.9993V13.3335Z"></path></svg>